<svg xmlns="http://www.w3.org/2000/svg" viewBox="0 0 480 480"><defs/><path d="M142.5 312a24 24 0 00-22.5-16 24 24 0 107.9 46.7 23.9 23.9 0 0014.6-14.7c2-5.1 2-10.8 0-16zM120 328a8 8 0 110-16 8 8 0 010 16zM96 136H32v80h144v-80H96zm0 64H48v-48h48v48zm64 0h-48v-48h48v48z"/><path d="M478.2 202l-34.7-83.2a24 24 0 00-22.2-14.8H24a24 24 0 00-24 24v176a24 24 0 0024 24h40.6a56 56 0 00110.8 0h129.2a56 56 0 00110.8 0H456a24 24 0 0024-24v-92.8c0-3.2-.6-6.3-1.8-9.2zM440 152l20 48h-76v-48h56zM159.2 328a40 40 0 11-78.4-16 40 40 0 0178.4 16zm32.8-16h-16.6a56 56 0 00-110.8 0H24a8 8 0 01-8-8v-56h176v64zm80-80v80h-64V152h64v80zm127.2 96a40 40 0 11-78.4-16 40 40 0 0178.4 16zm64.8-24a8 8 0 01-8 8h-40.6a56 56 0 00-110.8 0H288v-64h176v56zm0-72H288v-96h-96v96H16V128a8 8 0 018-8h397.3a8 8 0 017.4 5l4.6 11H304v80h160v16zm-96-80v48h-48v-48h48z"/><path d="M382.5 312a24 24 0 00-22.5-16 24 24 0 107.9 46.7 23.9 23.9 0 0014.6-14.7c2-5.1 2-10.8 0-16zM360 328a8 8 0 110-16 8 8 0 010 16z"/></svg>