<svg xmlns="http://www.w3.org/2000/svg" viewBox="0 0 510 510"><defs/><path d="M92 324a22 22 0 100 44 22 22 0 000-44zm0 29a7 7 0 110-14 7 7 0 010 14zM421 324a22 22 0 100 44 22 22 0 000-44zm0 29a7 7 0 110-14 7 7 0 010 14z"/><path d="M491 282v-68c0-8-2-17-7-24l-8-15a7 7 0 10-13 8l9 14c2 5 4 11 4 17v1h-15c-9 0-16 7-16 16v43c0 8 7 15 16 15h15c1 4 4 7 8 7 6 0 11 5 11 11v13h-30a52 52 0 00-89 0h-75l9-21 2-8v-61h50a8 8 0 000-15h-35v-57h82v57h-15a8 8 0 000 15h15c8 0 15-7 15-15v-60c0-7-5-12-12-12H237c-3 0-6 1-8 3l-82 71a8 8 0 005 13h145v62l-12 28h-86a8 8 0 000 15h171a52 52 0 00-1 15H144a52 52 0 00-2-15h25a8 8 0 000-15h-31c-5-9-13-17-22-21v-73l107-94c4-3 9-4 13-4h178c11 0 22 6 28 16l7 11a8 8 0 0013-8l-7-11c-9-14-24-23-41-23H234c-8 0-16 3-22 8l-109 94H53c-29 0-53 24-53 53v80c0 9 7 17 16 17h28a52 52 0 0096 0h233a52 52 0 0096 0h25c9 0 16-8 16-17v-41c0-12-8-22-19-25zm-30-52h15v15h-16v-14l1-1zm-1 44v-14h16v14h-15-1zM297 158h15v57h-15zm-59 0h44v57H172zM99 230v65a52 52 0 00-51 25H15v-38h20a23 23 0 000-46h-3c6-4 13-6 21-6h46zm-64 21a8 8 0 010 16H15c0-6 2-11 4-16zm-19 99l-1-2v-13h27a52 52 0 00-1 15zm76 33a37 37 0 110-74 37 37 0 010 74zm329 0a37 37 0 110-74 37 37 0 010 74zm73-33h-22a52 52 0 00-1-15h24v13l-1 2z"/><path d="M278 257a8 8 0 000-15h-15a8 8 0 000 15z"/></svg>