<svg xmlns="http://www.w3.org/2000/svg" viewBox="0 0 480 480"><defs/><path d="M473 277a88 88 0 00-101-51L316 96h92a24 24 0 110 48h-24v16h24a40 40 0 000-80H304a8 8 0 00-7 11l22 53H171l-22-48h27V80h-72v16h27l27 58-41 75a88 88 0 1059 91h66l1-1 3-2 1-1 82-149 28 64a88 88 0 10116 46zM88 384a72 72 0 1121-141l-36 65a8 8 0 007 12h80c-5 36-35 64-72 64zm6-80l30-55c20 12 33 32 36 55H94zm82 0c-3-29-20-54-45-69l35-63 61 132h-51zm65-10l-61-134h134l-73 134zm165 89a72 72 0 01-43-137l30 69 14-6-29-68a72 72 0 1128 142z"/></svg>