<svg xmlns="http://www.w3.org/2000/svg" viewBox="0 0 60 42"><defs/><g fill="#000" fill-rule="nonzero"><path d="M3 42h54a3 3 0 003-3v-1a3 3 0 00-3-3h-7.26c.7-.85 1.14-1.9 1.23-3H52a8 8 0 006.65-12.44l-10.66-16A7.98 7.98 0 0041.32 0H3a3 3 0 00-3 3v28a1 1 0 001 1h26.02c.1 1.1.54 2.15 1.24 3H3a3 3 0 00-3 3v1a3 3 0 003 3zm42.5-7a3.5 3.5 0 01-3.45-3h6.9a3.5 3.5 0 01-3.45 3zm-5.47-3c.1 1.1.53 2.15 1.23 3h-4.52c.7-.85 1.14-1.9 1.23-3zm13.84-16H40a1 1 0 01-1-1V8a1 1 0 011-1h7.87zM2 23h3v1a3 3 0 003 3h7a3 3 0 003-3v-1h23a1 1 0 000-2H18V8a3 3 0 00-3-3H8a3 3 0 00-3 3v13H2V3a1 1 0 011-1h38.32c2 0 3.88 1 5 2.67l.21.33H40a3 3 0 00-3 3v7a3 3 0 003 3h15.2l1.78 2.67c.07.1.13.22.19.33H46a1 1 0 000 2h11.91A6.01 6.01 0 0152 30H2zm14 1a1 1 0 01-1 1H8a1 1 0 01-1-1V8a1 1 0 011-1h7a1 1 0 011 1zm13.05 8h6.9a3.48 3.48 0 01-6.9 0zM2 38a1 1 0 011-1h54a1 1 0 011 1v1a1 1 0 01-1 1H3a1 1 0 01-1-1z"/><path d="M31 5h-7a3 3 0 00-3 3v7a3 3 0 003 3h7a3 3 0 003-3V8a3 3 0 00-3-3zm1 10a1 1 0 01-1 1h-7a1 1 0 01-1-1V8a1 1 0 011-1h7a1 1 0 011 1zM13 9h-3a1 1 0 100 2h3a1 1 0 000-2zM13 13h-3a1 1 0 000 2h3a1 1 0 000-2z"/></g></svg>
