<svg xmlns="http://www.w3.org/2000/svg" viewBox="-60 0 512 512"><defs/><path d="M87 0C75 0 62 5 51 15a8 8 0 1011 12c31-28 62 1 78 40H35l9-19a8 8 0 10-14-8C-2 93-7 178 8 242c5 20 23 34 43 34h73c20 0 38-14 43-34C193 133 155 0 87 0zm64 238c-3 13-14 22-27 22H51c-13 0-24-9-27-22l-5-29h137l-5 29zm7-45H17v-47h141v47zm-2-63H18c3-17 6-33 11-47h117c5 14 8 30 10 47zm0 0M136 318H39c-10 0-19 9-19 20v45a68 68 0 00133 16 8 8 0 00-15-4 52 52 0 01-102-12v-45c0-2 1-4 3-4h97c2 0 3 2 3 4v29a8 8 0 0016 0v-29c0-11-9-20-19-20zm0 0M388 179a8 8 0 00-16 3l2 9H236c2-16 6-32 10-46h118l2 8a8 8 0 1016-4C354 49 282 32 241 113c-26 54-30 131-15 190 5 20 22 34 42 34h73c21 0 38-14 43-34 10-40 11-85 4-124zm-30-50H252c29-69 77-68 106 0zm10 171c-3 12-14 21-27 21h-73c-13 0-24-9-27-21l-5-30h138l-6 30zm7-46H234v-46h141c2 15 2 31 0 46zm0 0M353 380h-96c-11 0-20 8-20 19v45a68 68 0 00136 0v-45c0-11-9-20-20-20zm4 64a52 52 0 01-104 0v-45c0-2 2-3 4-3h96c2 0 4 1 4 3zm0 0"/></svg>