<svg height="512pt" viewBox="-60 0 512 512" width="512pt" xmlns="http://www.w3.org/2000/svg"><path d="m87.496094 0c-12.8125 0-25.082032 4.992188-36.457032 14.832031-3.359374 2.90625-3.726562 7.980469-.820312 11.335938 2.902344 3.359375 7.976562 3.726562 11.335938.820312 31.867187-27.566406 62.019531.671875 78.730468 40.175781h-105.660156c2.886719-6.773437 6.078125-13.085937 9.566406-18.839843 2.300782-3.796875 1.089844-8.738281-2.707031-11.039063-3.796875-2.300781-8.738281-1.089844-11.039063 2.707032-32.242187 53.199218-37.578124 138.191406-22.113281 201.796874 4.871094 20.035157 22.394531 34.027344 42.617188 34.027344h73.097656c20.222656 0 37.746094-13.992187 42.617187-34.027344 26.359376-108.414062-11.933593-241.789062-79.167968-241.789062zm63.550781 237.992188c-3.117187 12.804687-14.21875 21.75-27 21.75h-73.097656c-12.78125 0-23.886719-8.945313-27-21.75-2.300781-9.476563-4.105469-19.273438-5.402344-29.339844h137.902344c-1.296875 10.066406-3.101563 19.863281-5.402344 29.339844zm7.027344-45.414063h-141.152344c-1.125-15.191406-1.175781-30.878906-.039063-46.628906h141.210938c1.164062 15.714843 1.101562 31.46875-.019531 46.628906zm-1.605469-62.703125h-138c2.097656-16.636719 5.527344-32.378906 10.152344-46.636719h117.625c4.566406 14.105469 8.0625 29.847657 10.222656 46.636719zm0 0"/><path d="m135.503906 317.902344h-96.011718c-10.917969 0-19.796876 8.878906-19.796876 19.792968v44.90625c0 37.382813 30.417969 67.800782 67.800782 67.800782 30.964844 0 57.976562-20.980469 65.691406-51.023438 1.101562-4.300781-1.488281-8.679687-5.789062-9.785156-4.292969-1.101562-8.679688 1.488281-9.78125 5.785156-5.890626 22.933594-26.5 38.949219-50.121094 38.949219-28.519532 0-51.726563-23.203125-51.726563-51.726563v-44.902343c0-2.019531 1.703125-3.722657 3.722657-3.722657h96.011718c2.019532 0 3.722656 1.703126 3.722656 3.722657v29.703125c0 4.4375 3.597657 8.035156 8.035157 8.035156 4.441406 0 8.039062-3.597656 8.039062-8.035156v-29.703125c0-10.917969-8.878906-19.796875-19.796875-19.796875zm0 0"/><path d="m388.355469 179.394531c-.707031-4.382812-4.832031-7.367187-9.214844-6.660156-4.378906.707031-7.363281 4.832031-6.65625 9.210937.503906 3.148438.945313 6.328126 1.351563 9.527344h-137.972657c2.152344-16.789062 5.652344-32.53125 10.21875-46.636718h117.597657c.898437 2.78125 1.761718 5.636718 2.582031 8.5625 1.199219 4.277343 5.632812 6.769531 9.910156 5.570312 4.273437-1.199219 6.765625-5.632812 5.566406-9.910156-28.105469-100.238282-100.117187-117.234375-140.316406-35.855469-26.460937 53.578125-30.21875 130.703125-15.757813 190.183594 4.871094 20.03125 22.394532 34.027343 42.617188 34.027343h73.097656c20.222656 0 37.746094-13.992187 42.617188-34.027343 9.800781-40.320313 10.613281-85.113281 4.359375-123.992188zm-30.636719-50.636719h-105.675781c29.074219-68.730468 77.191406-67.359374 105.675781 0zm10.65625 170.832032c-3.113281 12.804687-14.214844 21.75-27 21.75h-73.09375c-12.785156 0-23.886719-8.945313-27-21.75-2.304688-9.476563-4.105469-19.273438-5.40625-29.339844h137.90625c-1.296875 10.066406-3.101562 19.863281-5.40625 29.339844zm7.027344-45.414063h-141.144532c-1.125-15.164062-1.1875-30.914062-.023437-46.628906h141.199219c1.128906 15.550781 1.121094 31.128906-.03125 46.628906zm0 0"/><path d="m352.835938 379.5h-96.011719c-10.914063 0-19.796875 8.878906-19.796875 19.792969v44.90625c0 37.386719 30.417968 67.800781 67.800781 67.800781 37.386719 0 67.804687-30.414062 67.804687-67.800781v-44.90625c0-10.914063-8.878906-19.792969-19.796874-19.792969zm3.722656 64.695312c0 28.523438-23.207032 51.730469-51.730469 51.730469-28.519531 0-51.726563-23.207031-51.726563-51.730469v-44.902343c0-2.015625 1.707032-3.71875 3.722657-3.71875h96.011719c2.019531 0 3.722656 1.703125 3.722656 3.71875zm0 0"/></svg>